<?xml version="1.0" standalone="no"?>
<!DOCTYPE svg PUBLIC "-//W3C//DTD SVG 20010904//EN"
 "http://www.w3.org/TR/2001/REC-SVG-20010904/DTD/svg10.dtd">
<svg version="1.0" xmlns="http://www.w3.org/2000/svg"
 width="1258.000000pt" height="1258.000000pt" viewBox="0 0 1258.000000 1258.000000"
 preserveAspectRatio="xMidYMid meet">
<metadata>
Created by potrace 1.16, written by Peter Selinger 2001-2019
</metadata>
<g transform="translate(0.000000,1258.000000) scale(0.100000,-0.100000)"
fill="#000000" stroke="none">
<path d="M0 6290 l0 -6290 4211 0 c4000 0 4212 1 4225 18 13 16 13 16 14 0 0
-16 11 -18 80 -18 l80 0 0 30 c0 17 -7 46 -14 65 -8 19 -11 35 -5 35 9 0 25
-30 49 -97 l12 -33 1964 0 1964 0 0 711 c0 608 -2 710 -14 706 -12 -5 -12 0
-4 26 6 18 13 55 15 83 l5 52 -29 -6 c-26 -5 -27 -4 -13 13 12 14 15 48 15
153 0 99 3 136 13 139 16 6 18 873 2 873 -5 0 -10 -4 -10 -10 0 -5 -9 -10 -20
-10 -11 0 -20 -5 -20 -11 0 -6 9 -13 20 -16 16 -4 20 -14 20 -45 0 -37 -1 -38
-21 -26 -53 32 -65 38 -82 38 -15 0 -12 -6 12 -32 17 -18 31 -38 31 -43 0 -6
12 -24 28 -41 l27 -30 -22 -22 -22 -22 -19 25 c-30 38 -43 32 -36 -17 7 -42 7
-43 -13 -26 -14 13 -22 15 -30 7 -17 -17 -53 8 -59 41 -4 16 -17 39 -30 51
-13 12 -24 28 -24 36 0 7 -8 13 -17 13 -26 1 -56 27 -50 43 4 10 -1 13 -18 9
-20 -3 -23 -1 -18 16 3 14 -2 25 -16 34 -12 7 -21 22 -21 33 -1 18 -1 19 -11
2 -5 -9 -21 -17 -34 -17 -14 0 -25 -4 -25 -9 0 -13 33 -23 51 -16 8 3 19 -5
26 -20 11 -24 10 -25 -15 -19 -15 3 -36 8 -47 12 -11 3 -39 4 -61 3 -26 -2
-45 3 -50 11 -4 7 -4 10 0 6 5 -4 26 3 48 14 26 14 35 23 28 28 -7 4 -9 13 -6
19 4 6 11 9 15 7 4 -3 14 6 22 20 12 23 11 28 -5 39 -10 8 -31 12 -47 10 -23
-3 -29 0 -29 16 0 11 -6 34 -13 52 -14 33 -12 57 3 57 5 0 25 -16 45 -37 23
-24 35 -31 35 -20 0 24 11 27 89 18 57 -6 71 -5 67 6 -3 8 2 13 14 13 23 0 36
18 22 32 -5 5 -37 10 -71 10 l-61 1 -25 53 c-14 29 -30 56 -35 59 -15 9 -12
43 6 70 18 27 34 33 34 11 0 -8 15 -16 38 -20 63 -10 83 -7 108 16 24 23 32
48 15 48 -5 0 -12 8 -15 18 -3 9 -16 28 -29 42 -29 31 -41 91 -22 116 12 17
14 17 40 0 17 -12 39 -16 59 -13 17 2 40 0 51 -6 10 -5 61 -11 112 -13 l93 -2
0 4609 0 4609 -6290 0 -6290 0 0 -6290z m6775 2750 c6 -2 27 0 48 4 25 6 42 4
52 -4 9 -7 26 -9 45 -5 27 6 32 4 37 -14 3 -14 11 -20 22 -17 9 3 34 10 57 17
34 9 47 9 75 -5 61 -29 113 -86 79 -86 -5 0 -10 -5 -10 -11 0 -6 7 -9 15 -5
23 8 45 -4 45 -25 0 -10 5 -19 10 -19 6 0 10 -5 10 -12 0 -9 -3 -9 -12 0 -9 9
-16 8 -30 -5 -24 -22 -23 -37 3 -30 20 5 20 5 3 -14 -11 -12 -20 -16 -22 -10
-4 13 -22 5 -22 -10 0 -5 9 -9 19 -9 11 0 23 -4 26 -10 10 -16 25 -11 25 8 0
23 66 99 77 89 4 -5 2 -17 -5 -27 -10 -17 -10 -20 6 -20 10 0 23 5 30 12 20
20 27 -20 7 -42 -10 -11 -15 -20 -11 -20 8 0 -33 -61 -49 -72 -5 -4 1 -8 15
-8 23 0 22 -2 -12 -25 -20 -14 -42 -25 -47 -25 -6 0 -11 -4 -11 -9 0 -18 26
-17 68 2 44 19 70 15 42 -6 -15 -12 -50 -62 -50 -72 0 -13 30 -3 39 13 10 16
10 16 11 0 0 -31 38 -20 71 22 34 42 49 50 49 25 0 -9 9 -15 21 -15 19 0 20
-2 8 -17 -12 -15 -12 -16 4 -10 10 4 16 3 12 -2 -3 -5 -1 -12 4 -15 5 -3 11 3
14 14 3 11 13 20 22 20 9 0 14 -3 12 -7 -20 -39 -47 -106 -44 -109 2 -2 31 25
63 61 32 36 66 65 75 65 9 0 22 7 29 15 19 23 30 18 30 -14 0 -21 6 -30 21
-34 17 -5 21 -12 17 -36 -3 -17 -1 -31 4 -31 9 0 4 -86 -8 -132 -5 -22 -3 -28
10 -28 11 0 16 9 16 30 0 17 5 30 10 30 6 0 10 -9 10 -19 0 -38 20 -32 21 6 1
21 5 49 9 63 8 24 8 24 9 -6 1 -17 8 -49 17 -70 9 -22 16 -41 15 -44 -2 -9 20
-74 40 -117 10 -24 19 -50 19 -58 0 -9 7 -27 16 -40 9 -14 14 -31 11 -40 -4
-8 -2 -17 3 -20 4 -3 11 -23 15 -45 4 -22 10 -38 14 -36 11 7 50 -152 55 -224
2 -36 7 -72 10 -80 5 -15 12 -219 21 -625 5 -229 -5 -356 -34 -428 -6 -16 -9
-32 -6 -36 4 -8 -10 -247 -20 -332 -3 -24 -7 -75 -9 -114 -9 -131 -82 -392
-117 -414 -15 -9 -18 -15 -10 -20 9 -6 8 -11 -4 -21 -12 -10 -15 -10 -15 0 0
16 -39 50 -56 50 -8 0 -23 -20 -35 -45 -12 -25 -25 -45 -29 -45 -12 0 -70 -88
-70 -106 0 -9 -10 -14 -29 -14 l-28 0 3 -61 c2 -33 6 -64 8 -68 4 -6 -51 -175
-80 -246 -20 -50 -107 -183 -148 -226 -56 -60 -87 -80 -123 -82 -15 -1 -47
-12 -71 -25 -45 -24 -161 -39 -172 -22 -7 11 -80 -6 -80 -19 0 -5 -19 -5 -42
-1 -60 11 -133 21 -198 27 -30 3 -62 12 -71 20 -10 8 -43 16 -75 19 -33 3 -72
13 -90 24 -17 11 -41 20 -52 20 -11 0 -24 5 -27 10 -3 6 -30 10 -58 11 -29 0
-46 3 -39 6 22 9 13 33 -12 33 -16 0 -27 7 -31 20 -3 11 -13 20 -21 20 -8 0
-17 7 -21 16 -3 8 -12 13 -19 10 -22 -8 -44 4 -44 24 0 10 -6 21 -12 23 -8 3
-6 6 5 6 21 1 23 20 2 26 -43 14 -50 17 -37 22 15 6 16 23 1 23 -19 0 -39 28
-39 56 0 21 -3 24 -14 15 -11 -9 -17 -8 -29 4 -9 8 -20 15 -25 15 -15 0 -22
27 -15 61 4 19 11 29 22 28 40 -4 41 3 7 26 -20 14 -45 25 -56 25 -23 0 -35
18 -32 47 2 12 -2 32 -8 44 -10 17 -9 23 1 30 14 9 5 24 -14 24 -22 0 -67 43
-67 63 0 46 30 72 44 37 7 -19 24 -19 28 -1 2 10 8 7 21 -10 17 -23 17 -24 -3
-24 -11 0 -20 -4 -20 -10 0 -5 6 -7 14 -4 8 3 23 1 34 -5 15 -8 30 -7 59 5 21
9 41 21 44 26 4 6 12 8 18 4 15 -10 10 -58 -6 -52 -7 3 -14 -7 -18 -24 -8 -35
37 -110 66 -110 11 0 19 3 20 8 1 4 3 24 5 46 1 21 6 41 9 44 13 13 37 -28 43
-74 5 -33 12 -49 22 -49 30 -1 60 -26 60 -49 0 -13 7 -26 15 -30 8 -3 15 -13
15 -22 0 -10 3 -15 6 -11 7 6 76 -41 83 -56 2 -5 24 -22 49 -38 25 -16 42 -29
38 -29 -5 0 -3 -6 3 -13 6 -8 31 -14 58 -14 27 1 38 2 26 4 -13 3 -23 10 -23
16 0 15 152 17 162 2 12 -17 146 -10 167 9 11 10 35 16 65 16 30 0 53 6 63 16
12 11 18 12 23 4 5 -8 10 -2 14 14 3 14 12 26 20 26 7 0 27 7 43 15 31 16 48
61 32 87 -4 6 -1 24 7 40 8 15 13 46 12 68 -3 43 -15 49 -60 31 -96 -39 -125
-43 -272 -44 -102 0 -109 1 -126 23 -12 17 -24 21 -40 17 -17 -4 -32 4 -63 33
-22 22 -39 42 -36 44 8 8 64 10 77 3 6 -5 17 -5 23 -1 6 3 15 0 20 -7 8 -12
10 -12 18 0 10 15 39 17 138 9 37 -3 67 0 73 6 6 6 39 11 75 11 50 0 67 4 78
18 7 11 28 20 48 21 19 1 41 6 47 10 18 11 34 -3 27 -25 -5 -15 -1 -19 14 -19
12 0 21 4 21 9 0 5 21 19 48 31 26 13 55 26 64 31 24 12 128 11 128 -1 0 -5 8
-10 19 -10 22 0 47 47 57 108 4 24 11 45 15 48 5 3 9 13 9 23 0 10 6 31 14 45
16 31 12 56 -14 84 -10 10 -18 28 -17 38 1 10 -5 20 -14 22 -21 4 -32 -45 -13
-52 8 -3 14 -12 14 -20 0 -12 -7 -14 -30 -9 -19 3 -30 1 -30 -6 0 -6 -9 -11
-20 -11 -11 0 -20 -4 -20 -8 0 -5 -12 -14 -26 -21 -23 -10 -32 -8 -73 17 -98
59 -126 67 -197 55 -39 -7 -77 -8 -95 -3 -16 5 -62 12 -102 16 -40 4 -82 14
-94 22 -13 8 -30 12 -38 8 -8 -3 -35 -2 -60 3 -25 5 -48 5 -50 1 -3 -5 -29
-11 -58 -14 -100 -12 -177 -28 -177 -37 0 -5 -7 -9 -15 -9 -8 0 -34 -9 -58
-20 -23 -11 -58 -21 -77 -22 -31 -3 -35 -1 -32 20 2 15 -2 22 -13 22 -11 0
-15 9 -13 33 3 46 -5 54 -63 62 -40 6 -54 4 -68 -10 -11 -9 -28 -17 -40 -18
-16 -1 -19 -6 -15 -24 6 -23 -9 -32 -21 -14 -8 15 -84 10 -100 -5 -7 -8 -20
-14 -27 -14 -10 0 -10 2 0 8 9 6 6 12 -13 20 -17 8 -25 20 -26 39 -1 16 -2 35
-3 44 -2 30 -37 59 -73 59 -25 0 -42 9 -73 40 -22 22 -40 47 -40 55 0 8 -4 15
-10 15 -5 0 -10 9 -10 19 0 11 -6 22 -12 24 -8 3 -5 6 5 6 24 1 12 21 -13 21
-10 0 -20 3 -22 8 -1 4 -16 14 -33 23 -16 9 -37 31 -47 49 -30 58 -48 71 -86
64 -24 -5 -33 -3 -28 4 4 6 4 23 0 37 -5 20 -9 23 -20 14 -10 -8 -19 -6 -38 9
-14 11 -23 22 -20 24 10 11 -8 58 -22 58 -8 0 -19 12 -25 27 -6 16 -18 36 -26
45 -15 17 -15 18 1 18 14 0 15 3 5 22 -8 14 -14 18 -17 10 -5 -17 -37 -15 -52
3 -7 8 -10 25 -6 39 5 19 1 28 -15 36 -17 10 -20 19 -17 53 3 36 1 41 -23 51
-23 8 -27 14 -22 36 3 17 -1 31 -11 39 -9 8 -16 20 -16 28 0 8 -9 27 -19 42
-23 31 -35 135 -19 164 7 14 7 27 -1 43 -8 18 -7 27 6 39 8 9 22 14 29 11 7
-3 19 1 26 8 8 7 20 15 28 19 12 4 12 6 -2 6 -31 2 -30 21 1 21 24 0 31 -4 31
-20 0 -13 7 -20 19 -20 11 0 23 -5 26 -11 4 -6 13 -8 20 -5 8 3 30 -11 50 -30
20 -19 45 -34 55 -34 29 0 49 -11 44 -24 -6 -17 35 -58 52 -52 7 3 18 -3 23
-13 7 -13 18 -16 41 -13 22 3 35 -1 43 -12 7 -10 17 -16 22 -15 6 2 26 -2 45
-8 60 -20 194 -36 198 -24 2 6 16 8 32 5 16 -4 50 1 77 9 26 8 69 18 96 21 26
3 61 12 77 21 16 8 40 15 54 15 14 0 28 5 31 10 4 6 10 8 15 5 5 -3 26 6 47
20 21 14 46 31 57 38 10 6 24 17 30 23 21 20 56 35 67 28 6 -3 10 0 8 7 -4 31
2 49 16 49 7 0 19 8 24 18 9 14 10 13 9 -10 -2 -19 -8 -28 -20 -28 -10 0 -18
-4 -18 -10 0 -5 14 -10 31 -10 28 0 31 3 27 25 -7 36 15 31 35 -7 10 -21 16
-27 16 -15 1 9 6 17 11 17 6 0 10 5 10 12 0 6 8 20 17 30 21 23 35 129 19 141
-7 4 -3 9 12 13 24 7 29 20 10 27 -15 5 29 46 49 47 7 0 22 14 35 30 22 31 53
40 60 18 3 -9 18 -9 62 2 55 13 59 13 72 -5 8 -10 14 -27 14 -37 0 -10 9 -27
19 -37 11 -11 23 -40 27 -66 5 -38 11 -48 32 -56 16 -6 22 -13 15 -17 -8 -5
-3 -17 15 -39 30 -35 137 -123 150 -123 4 0 21 -13 38 -29 32 -31 101 -70 88
-50 -5 9 -2 10 10 6 10 -4 21 -7 26 -7 5 0 11 -9 15 -19 5 -16 12 -19 41 -14
26 4 38 1 48 -12 15 -21 36 -12 36 16 0 13 7 19 23 20 l22 2 -22 4 c-16 3 -23
11 -23 28 0 30 0 30 91 54 125 34 208 78 209 113 0 4 -19 16 -43 26 -34 15
-59 18 -117 15 -60 -4 -164 5 -250 20 -24 5 -60 27 -60 37 0 16 52 11 64 -6
10 -14 14 -14 41 1 17 9 41 13 57 9 14 -3 46 0 70 7 67 19 116 17 207 -8 66
-18 87 -20 94 -10 12 18 48 96 47 102 -1 3 6 17 15 31 10 15 14 32 9 42 -13
30 -13 46 -1 54 9 6 8 11 -3 18 -22 14 -35 7 -38 -23 -3 -27 -16 -35 -26 -18
-5 7 -63 23 -86 23 -3 0 -12 4 -21 9 -9 5 -20 4 -26 -2 -18 -18 -115 -13 -178
8 -64 23 -95 30 -164 38 -59 7 -131 49 -131 76 0 52 115 168 209 211 52 24 74
28 125 26 33 -2 63 -6 66 -10 3 -3 25 -9 50 -11 24 -2 46 -9 48 -16 2 -6 15
-11 29 -11 19 0 24 -4 19 -15 -3 -9 1 -18 10 -22 11 -4 12 -8 4 -13 -9 -5 -3
-15 18 -30 17 -13 28 -28 25 -36 -3 -8 0 -14 6 -14 7 0 18 -13 25 -30 l12 -30
18 40 c15 34 22 40 47 40 28 0 29 2 29 46 0 63 -64 186 -130 248 -28 26 -50
51 -50 56 0 28 -206 66 -260 47 -8 -3 -59 -8 -113 -11 -67 -4 -112 -12 -147
-27 -28 -12 -54 -19 -57 -15 -4 3 -17 -4 -30 -16 l-23 -21 0 27 c0 15 -4 25
-10 21 -5 -3 -7 -12 -3 -20 3 -10 -2 -15 -16 -15 -12 0 -21 -4 -21 -10 0 -5
-4 -10 -10 -10 -5 0 -10 10 -10 23 0 18 -2 19 -11 7 -8 -11 -12 -12 -16 -2 -6
15 -23 6 -23 -13 0 -8 -10 -25 -22 -38 -47 -50 -66 -77 -72 -100 -6 -26 -47
-42 -64 -25 -5 5 -19 0 -34 -12 -21 -16 -35 -19 -72 -14 -31 5 -55 2 -71 -6
-20 -11 -27 -11 -41 1 -9 7 -29 12 -45 11 -18 -1 -29 3 -29 10 0 18 -58 55
-97 63 -20 4 -33 13 -33 22 0 12 -3 13 -14 4 -12 -10 -20 -9 -38 3 -29 18
-135 46 -213 56 -33 4 -77 15 -97 24 -34 15 -37 15 -31 0 5 -14 0 -15 -38 -9
-24 4 -47 12 -51 18 -5 8 -14 8 -31 0 -15 -7 -63 -9 -129 -6 -130 6 -174 -5
-223 -56 -33 -34 -44 -39 -82 -39 -24 0 -43 3 -41 6 37 78 50 101 72 121 14
14 26 30 26 37 0 16 21 23 40 14 10 -6 27 3 53 26 20 19 37 39 37 44 0 6 4 10
9 10 5 0 13 9 16 20 3 11 14 20 23 20 9 1 32 9 51 19 33 18 33 18 10 25 l-24
6 25 15 c14 8 32 14 40 15 8 0 36 10 62 22 35 16 46 27 43 39 -3 9 -1 27 4 40
7 16 10 19 10 7 1 -9 5 -20 11 -23 13 -8 87 13 96 27 4 6 3 8 -3 5 -6 -4 -16
0 -23 8 -10 12 -10 18 0 30 9 11 10 18 1 28 -8 11 -6 19 8 36 11 13 25 20 31
16 7 -4 16 6 23 24 8 21 17 31 30 29 10 -2 22 7 30 22 7 14 21 26 32 28 23 5
34 16 63 64 22 36 74 74 109 80 10 2 24 11 31 21 7 9 26 17 42 17 16 0 31 4
34 9 3 4 38 13 78 20 40 6 93 18 118 26 41 13 54 14 85 5z m-715 -1152 c47
-12 120 -54 120 -69 0 -5 6 -9 14 -9 18 0 81 -58 89 -82 4 -10 12 -18 20 -18
8 0 13 -13 12 -37 l0 -38 -90 -8 c-49 -4 -112 -12 -138 -18 -36 -8 -52 -8 -60
0 -6 6 -26 11 -43 11 -18 0 -35 4 -38 8 -3 5 -22 9 -43 10 -21 1 -43 8 -49 17
-7 9 -27 15 -52 15 -23 0 -47 7 -56 15 -13 13 -15 13 -21 -5 -4 -11 -10 -18
-15 -15 -5 3 -7 12 -3 20 3 9 -1 15 -11 15 -12 0 -16 10 -16 39 0 46 17 62 67
64 35 2 38 4 35 28 -2 23 4 30 42 47 24 12 57 20 74 18 16 -2 34 -1 41 3 14 9
58 5 121 -11z m308 -512 c2 -3 2 -12 -2 -21 -6 -18 -49 -37 -54 -24 -4 11 -51
2 -141 -27 -59 -19 -95 -24 -180 -24 -103 0 -108 1 -120 24 -22 40 -7 49 71
41 40 -3 74 -2 81 3 7 5 35 12 62 15 28 4 68 10 90 15 39 9 183 7 193 -2z
m-2169 -534 l1 -72 56 -36 c49 -31 60 -35 81 -25 37 17 95 13 138 -9 22 -11
45 -20 52 -20 20 0 16 -14 -11 -39 -18 -17 -40 -23 -92 -28 -66 -5 -71 -4
-108 26 -27 22 -45 29 -61 25 -16 -4 -33 3 -59 26 -20 18 -36 28 -36 24 0 -4
-7 1 -15 12 -8 10 -14 33 -14 49 0 42 21 126 39 152 13 21 15 21 22 5 3 -9 7
-50 7 -90z m3643 -1637 c1 -110 -6 -189 -17 -197 -6 -5 -5 -11 3 -16 10 -7 8
-19 -8 -58 -29 -70 -53 -114 -62 -114 -5 0 -8 -8 -8 -17 0 -13 3 -14 12 -5 17
17 38 15 38 -3 0 -8 -9 -24 -19 -34 -11 -11 -18 -21 -15 -23 7 -7 -17 -78 -26
-78 -6 0 -10 -5 -10 -11 0 -7 -8 -18 -17 -25 -17 -13 -17 -13 1 -14 15 0 16
-3 6 -15 -7 -8 -20 -15 -29 -15 -13 -1 -13 -3 4 -16 17 -12 18 -16 5 -24 -8
-5 -18 -6 -24 -3 -5 4 -6 1 -1 -8 11 -18 7 -80 -7 -96 -6 -7 -21 -13 -34 -13
-15 0 -24 -6 -24 -15 0 -18 17 -20 23 -2 2 6 8 9 12 5 12 -11 -46 -80 -63 -73
-12 4 -12 1 2 -20 14 -21 14 -24 1 -19 -9 4 -26 -4 -42 -20 -24 -25 -25 -26
-5 -26 11 0 24 -5 28 -11 4 -7 -2 -10 -17 -8 -28 4 -52 -8 -44 -21 3 -5 12 -7
20 -3 29 10 15 -6 -31 -37 -25 -18 -48 -29 -51 -26 -4 3 -12 1 -19 -5 -8 -7
-14 -7 -19 1 -9 14 4 32 19 27 7 -3 23 2 37 10 l24 14 -28 -4 c-15 -2 -30 0
-33 5 -3 5 -12 4 -20 -3 -11 -9 -17 -9 -29 1 -9 8 -25 10 -42 5 -16 -4 -53 -7
-83 -7 -51 0 -52 0 -15 -6 24 -4 35 -10 28 -15 -18 -11 -75 -5 -101 12 l-24
15 24 18 c12 9 31 18 41 18 9 0 17 6 17 13 1 6 29 30 63 52 62 39 97 68 97 81
0 4 8 13 17 20 24 17 8 32 -17 16 -22 -13 -70 -16 -70 -4 0 4 16 18 35 32 19
14 35 30 35 35 0 12 29 38 60 55 11 6 34 24 49 41 16 16 34 29 41 29 7 0 10 3
6 7 -3 4 8 22 26 40 33 35 31 56 -4 34 -15 -9 -23 -10 -32 -1 -8 8 -7 14 7 21
9 6 17 17 17 24 0 8 4 15 9 15 5 0 11 14 15 30 3 19 12 30 22 30 10 0 14 3 11
7 -4 3 2 12 13 20 11 8 20 25 20 38 0 13 5 27 10 30 6 3 10 17 10 31 0 24 4
34 30 84 7 14 14 55 15 91 1 36 5 71 9 77 4 6 2 21 -5 33 -8 15 -8 19 0 15 7
-5 11 2 11 17 0 14 21 67 47 118 l48 94 13 -90 c8 -49 14 -121 14 -160z m1808
-640 c85 -30 155 -54 215 -75 11 -4 67 -22 125 -40 58 -18 122 -39 143 -47 20
-7 46 -13 57 -13 26 0 162 -37 220 -60 25 -10 77 -26 115 -34 39 -9 120 -31
180 -50 61 -18 139 -41 175 -51 36 -9 76 -21 90 -26 14 -4 61 -17 105 -28 81
-20 322 -108 430 -156 33 -15 76 -34 95 -42 77 -34 257 -126 282 -145 47 -33
37 -52 -25 -48 l-28 2 7 -61 6 -60 -32 1 c-23 1 -34 7 -37 19 -3 11 -10 16
-15 13 -6 -4 -8 1 -4 12 5 15 0 19 -24 21 l-29 2 20 -47 c19 -43 19 -46 2 -29
-45 44 -77 69 -100 78 -30 11 -53 12 -37 1 12 -8 164 -209 164 -217 0 -12 -17
-3 -46 23 -77 70 -202 149 -180 114 10 -17 -60 2 -75 19 -9 11 -21 19 -28 19
-16 0 -14 -20 4 -26 8 -4 15 -12 15 -18 0 -14 -75 -7 -138 13 -28 8 -34 7 -45
-10 -6 -10 -22 -19 -34 -19 -13 0 -23 -5 -23 -10 0 -7 20 -10 48 -9 46 1 114
-24 253 -96 56 -29 186 -72 243 -80 32 -5 52 -17 81 -46 27 -28 41 -36 46 -27
30 49 140 -195 139 -309 0 -26 -18 -50 -27 -38 -5 6 -20 16 -35 24 -16 8 -28
19 -28 25 0 13 -56 47 -64 39 -2 -3 -1 -16 5 -30 26 -69 0 -69 -66 -1 -82 86
-121 115 -175 128 -28 7 -54 10 -57 7 -11 -12 7 -37 26 -37 17 0 19 -4 12 -22
-11 -30 -49 -38 -124 -27 -101 14 -117 12 -118 -13 0 -22 -1 -22 -10 2 l-10
25 -18 -24 -19 -24 -7 22 c-4 12 -9 20 -12 17 -3 -2 -16 -1 -29 4 -21 8 -27 6
-43 -20 -17 -29 -19 -30 -32 -12 -61 83 -124 152 -148 162 -44 18 -106 5 -119
-26 -7 -13 -16 -24 -22 -24 -5 0 -10 -9 -10 -20 0 -11 -6 -20 -14 -20 -19 0
-44 -72 -27 -78 22 -7 10 -31 -21 -41 -81 -25 -133 -10 -160 46 -16 33 -63 51
-90 34 -10 -6 -23 -9 -28 -6 -15 9 -40 67 -40 91 0 24 -9 51 -43 124 -23 50
-29 141 -10 147 7 3 9 11 6 19 -3 8 0 21 7 28 14 18 -9 69 -40 89 -25 15 -26
34 -2 41 26 7 351 0 397 -9 22 -5 50 -15 63 -23 25 -16 231 -19 241 -3 4 5 23
12 44 16 20 4 37 11 37 16 0 13 -117 11 -141 -1 -13 -7 -19 -7 -19 0 0 5 -20
10 -44 10 -58 0 -80 8 -66 25 8 10 3 15 -21 24 -44 15 -66 14 -77 -4 -10 -18
-109 -30 -131 -15 -27 16 34 36 70 23 24 -9 29 -9 29 4 0 13 -10 15 -58 10
-52 -6 -60 -4 -77 16 -12 14 -20 17 -23 9 -4 -14 -82 -16 -82 -2 0 16 -14 12
-54 -15 -20 -14 -47 -25 -60 -25 -19 0 -22 4 -19 24 6 28 -14 69 -28 61 -5 -4
-9 0 -9 9 0 8 -8 28 -17 45 -14 24 -25 31 -48 31 -25 0 -33 7 -49 40 -21 44
-26 46 -57 28 -17 -10 -23 -10 -26 0 -3 6 -11 12 -19 12 -8 0 -14 5 -14 10 0
6 -6 10 -14 10 -7 0 -25 9 -40 21 -21 17 -26 18 -26 5 0 -9 -8 -16 -19 -16
-11 0 -28 -15 -40 -35 -11 -19 -25 -35 -31 -35 -13 0 -32 48 -24 61 3 5 2 18
-1 29 -5 16 -9 18 -26 7 -10 -6 -19 -22 -19 -34 0 -13 -4 -23 -9 -23 -5 0 -11
-10 -13 -22 -6 -39 -28 -33 -28 9 -1 37 -28 114 -29 83 -1 -19 -57 -54 -71
-45 -7 4 -6 14 1 28 9 16 9 22 0 25 -6 2 -3 11 10 21 16 12 20 23 15 39 -4 12
-12 22 -17 22 -5 0 -9 18 -9 40 0 22 -4 40 -9 40 -5 0 -12 8 -15 18 -4 11 -22
22 -43 28 -42 10 -57 34 -21 34 22 1 21 2 -12 30 -19 16 -43 32 -52 35 -28 10
-21 22 15 30 42 9 106 9 190 0 42 -5 67 -4 67 2 0 6 -45 13 -101 17 -150 9
-278 56 -294 106 -9 29 -25 24 -25 -7 -1 -16 -6 -40 -13 -54 l-12 -27 -65 17
c-47 11 -66 21 -68 34 -6 29 23 62 65 76 26 9 46 24 58 45 10 17 23 35 29 39
17 12 83 -1 186 -38z m-486 -294 c62 -116 78 -141 94 -141 11 0 22 23 22 48 0
8 10 26 22 39 l21 23 -21 0 c-16 0 -22 6 -22 23 0 12 -4 29 -9 37 -16 24 -2
30 34 14 19 -8 65 -17 102 -22 67 -7 68 -7 93 -52 14 -25 48 -69 77 -99 41
-43 54 -64 59 -98 3 -24 10 -46 15 -49 5 -3 9 -20 9 -39 0 -19 5 -37 10 -40 6
-3 10 -44 10 -91 0 -78 -1 -84 -20 -84 -12 0 -33 12 -47 26 -15 15 -50 38 -77
51 -28 13 -61 31 -73 40 -19 12 -23 13 -23 2 -1 -8 -10 3 -21 24 -12 24 -27
37 -39 37 -11 0 -20 5 -20 10 0 6 9 10 20 10 30 0 24 17 -8 23 -18 4 -33 16
-40 33 -7 14 -15 24 -18 21 -5 -5 24 -70 62 -140 19 -34 10 -51 -18 -36 -15 8
-17 13 -8 19 10 6 9 10 -3 16 -8 5 -28 34 -44 64 -16 30 -33 62 -38 70 -5 8
-10 17 -11 20 -5 23 -49 110 -55 110 -5 0 -9 6 -9 14 0 7 -10 24 -23 37 -32
34 -77 106 -77 124 0 8 -4 15 -10 15 -5 0 -10 9 -10 20 0 18 -22 37 -45 38
-18 1 -17 33 2 48 16 12 21 10 49 -23 17 -19 57 -83 88 -142z m2982 -561 c32
-17 67 -41 77 -55 17 -23 17 -27 2 -41 -12 -13 -19 -14 -28 -5 -23 23 -37 12
-37 -29 0 -36 -2 -40 -25 -40 -31 0 -33 -23 -3 -44 27 -19 32 -46 9 -46 -10 0
-21 3 -25 7 -3 4 -14 8 -24 9 -9 1 -25 5 -34 9 -13 5 -18 3 -18 -9 0 -23 -8
-20 -52 19 -21 20 -52 38 -69 42 -36 7 -47 28 -30 54 7 12 7 19 1 19 -21 0 -9
39 20 67 17 15 30 33 30 40 0 21 33 32 91 33 43 0 70 -7 115 -30z m-2687 -29
c7 -5 10 -14 6 -20 -4 -7 4 -26 18 -44 38 -51 50 -77 35 -77 -7 0 -26 21 -43
45 -16 25 -37 45 -45 45 -11 0 -12 -2 -3 -8 7 -4 16 -23 19 -41 l7 -32 -39 5
c-53 6 -84 16 -84 27 0 5 8 9 18 9 9 0 23 10 31 21 12 20 11 21 -8 16 -12 -3
-19 -1 -15 4 3 5 -1 9 -9 9 -8 0 -20 6 -26 14 -10 12 -6 15 18 21 17 4 40 3
52 0 15 -5 19 -4 15 4 -9 13 32 15 53 2z m-5879 -86 c10 -13 9 -15 -10 -15
-13 0 -24 -7 -27 -18 -3 -13 -15 -18 -45 -19 -26 -1 -47 -9 -59 -22 -10 -11
-29 -22 -41 -26 -28 -8 -81 -31 -128 -57 -19 -11 -43 -22 -52 -25 -10 -3 -18
-12 -18 -19 0 -11 -13 -13 -54 -10 -43 3 -53 1 -49 -10 3 -8 0 -14 -6 -14 -6
0 -11 5 -11 10 0 18 -17 10 -30 -15 -7 -14 -17 -25 -22 -25 -4 0 -30 -16 -57
-35 -56 -40 -107 -48 -98 -15 8 32 -16 23 -42 -16 -21 -30 -30 -35 -53 -32
-15 3 -28 1 -28 -4 0 -4 -5 -8 -10 -8 -6 0 -29 -12 -52 -26 -23 -15 -60 -28
-82 -29 -61 -4 -72 -12 -90 -60 -13 -33 -22 -43 -39 -42 -12 1 -35 -2 -51 -7
l-30 -7 25 20 c23 19 23 20 3 21 -11 0 -31 -11 -44 -25 -13 -14 -30 -25 -37
-25 -8 0 -26 -13 -40 -30 -13 -16 -29 -30 -35 -30 -12 0 52 78 65 79 4 1 22
14 40 31 18 16 38 30 45 30 6 0 12 3 12 8 0 4 21 15 48 25 26 11 85 36 132 57
47 21 109 46 138 56 28 10 52 22 52 26 0 5 4 8 9 8 16 0 154 82 189 112 18 15
37 28 43 28 6 0 17 7 26 16 9 8 22 13 29 10 8 -3 47 8 88 24 41 17 84 30 95
30 38 0 133 41 127 55 -2 7 2 16 10 19 25 10 82 7 89 -4 4 -6 12 -4 21 5 20
19 38 19 54 0z m8749 -39 c20 -13 50 -32 67 -42 48 -29 144 -104 144 -112 0
-4 -33 -5 -72 -1 -40 4 -79 4 -86 2 -9 -4 -12 4 -10 28 3 33 3 33 -57 43 -55
10 -60 13 -63 38 -4 31 13 68 30 68 7 0 28 -11 47 -24z m-2499 -264 c0 -5 -13
-23 -30 -42 -28 -31 -53 -87 -49 -106 4 -17 -20 -61 -35 -67 -9 -4 -16 -13
-16 -22 0 -24 -24 -95 -32 -95 -5 0 -8 5 -8 10 0 6 -13 10 -30 10 -21 0 -30 5
-32 18 0 9 -2 22 -3 27 -2 6 -3 16 -4 23 -2 18 -13 15 -42 -12 l-27 -25 3 28
c1 15 5 33 10 40 4 7 3 16 -3 20 -5 3 -17 22 -25 42 -10 24 -24 38 -40 43 -14
3 -27 12 -30 20 -5 13 -2 13 18 4 18 -8 28 -7 46 6 13 9 18 16 11 16 -6 0 -12
6 -12 13 0 17 169 54 258 56 39 0 72 -3 72 -7z m-6589 -669 c28 -14 31 -18 15
-21 -11 -2 -28 -15 -39 -28 -10 -13 -23 -24 -30 -24 -6 0 -21 -10 -34 -21 -46
-44 -193 -71 -193 -35 0 7 -4 6 -9 -2 -7 -11 -9 -11 -14 2 -4 10 -1 16 8 16 8
0 15 4 15 8 0 5 33 23 73 41 60 27 80 32 118 27 37 -5 48 -3 53 9 3 9 2 14 -3
11 -5 -4 -7 3 -4 14 6 24 2 24 44 3z m6646 -530 c-2 -23 2 -28 19 -27 12 0 21
-4 19 -10 -2 -6 -9 -53 -16 -103 -6 -51 -15 -93 -19 -93 -5 0 -6 -19 -4 -42
l5 -43 -20 35 c-15 25 -19 45 -15 71 3 20 -1 61 -9 92 -14 53 -13 107 3 107 4
0 10 9 13 20 8 30 26 24 24 -7z"/>
<path d="M6472 7182 c-8 -17 -9 -29 -1 -38 7 -8 6 -13 -3 -16 -8 -3 -11 -20
-9 -51 2 -45 2 -46 -26 -44 -26 2 -28 -1 -29 -38 -1 -21 -6 -41 -13 -43 -6 -2
-11 -19 -11 -38 0 -18 -9 -48 -20 -66 -11 -18 -20 -47 -20 -65 0 -20 -7 -36
-17 -42 -16 -10 -16 -11 5 -17 27 -8 27 -12 4 -38 -10 -12 -32 -61 -48 -111
-35 -109 -40 -225 -10 -269 10 -15 15 -34 12 -41 -3 -8 3 -16 12 -19 19 -7 42
-39 48 -69 2 -11 9 -24 15 -28 7 -4 9 -16 6 -28 -3 -12 -1 -21 4 -21 5 0 9 -7
9 -15 0 -18 -12 -19 -28 -3 -6 6 -15 9 -19 5 -27 -28 91 -42 124 -15 13 11 17
11 21 0 3 -10 8 -10 22 3 13 12 25 14 42 8 13 -4 50 -8 83 -8 52 0 60 -2 57
-17 -4 -23 5 -23 52 3 42 22 81 22 81 -1 0 -11 14 -16 54 -18 43 -3 57 1 72
17 23 24 25 45 4 37 -16 -6 -19 3 -7 19 8 12 39 31 69 44 11 6 24 14 27 20 4
6 13 8 20 5 9 -3 17 3 21 15 4 13 15 21 28 21 49 0 168 137 153 176 -7 17 -52
40 -98 48 -21 4 -38 11 -38 16 0 5 -21 3 -47 -5 -58 -18 -99 -19 -109 -4 -4 7
-24 9 -55 5 -37 -5 -56 -2 -86 13 -21 11 -59 23 -85 26 -26 4 -49 13 -52 21
-8 21 -67 15 -94 -10 -18 -16 -25 -18 -31 -7 -7 10 -9 10 -14 -3 -11 -27 -58
-50 -109 -52 -44 -1 -50 1 -59 23 -29 78 29 163 112 163 10 0 23 9 29 19 6 12
17 17 29 14 15 -4 19 -1 15 14 -3 11 2 25 10 32 11 9 16 30 16 61 0 30 6 52
15 60 10 9 15 9 15 1 0 -6 9 -11 20 -11 25 0 25 12 1 34 -12 11 -20 36 -24 78
-4 41 -11 64 -21 70 -12 7 -16 25 -17 71 0 34 -4 71 -9 82 -5 11 -9 16 -9 10
-1 -5 -15 -11 -32 -12 -28 -2 -30 0 -25 21 8 34 -17 40 -32 8z"/>
<path d="M9945 4412 c16 -16 129 -59 177 -67 49 -8 278 -83 293 -95 6 -5 31
-8 55 -8 44 1 44 1 17 13 -15 6 -24 14 -21 18 7 7 -9 11 -32 8 -6 -1 -42 11
-80 25 -38 14 -89 31 -114 39 -25 7 -56 17 -70 22 -14 6 -63 16 -110 23 -47 7
-94 17 -105 23 -14 6 -17 6 -10 -1z"/>
<path d="M12240 2813 c0 -5 27 -42 60 -83 33 -41 60 -78 60 -81 0 -14 82 -70
111 -76 l32 -6 -31 44 c-32 47 -111 125 -178 177 -43 33 -54 38 -54 25z"/>
</g>
</svg>
