<svg width="73" height="71" viewBox="0 0 73 71" fill="none" xmlns="http://www.w3.org/2000/svg">
<path d="M43.3437 6.68582L43.1004 6.56749L43.07 6.62666C40.9408 6.18291 38.7508 5.91666 36.5 5.91666C19.71 5.91666 6.08331 19.17 6.08331 35.5C6.08331 51.83 19.71 65.0833 36.5 65.0833C53.29 65.0833 66.9166 51.83 66.9166 35.5C66.9166 21.4479 56.8487 9.70332 43.3437 6.68582ZM59.0387 26.625H34.7358L42.9787 12.7208C50.2787 14.6733 56.21 19.88 59.0387 26.625ZM39.8458 12.07L31.2379 26.625L27.74 32.5417L19.4666 18.6375C23.8466 14.4367 29.8691 11.8333 36.5 11.8333C37.6254 11.8333 38.7508 11.9221 39.8458 12.07ZM17.3375 20.9746L25.9758 35.5L29.4737 41.4167H12.9575C12.4708 39.5233 12.1666 37.5412 12.1666 35.5C12.1666 30.0271 14.1133 24.9979 17.3375 20.9746ZM13.9612 44.375H38.2337L29.9908 58.2792C22.6908 56.2971 16.79 51.12 13.9612 44.375ZM33.1541 58.9004L45.2904 38.4583L53.5637 52.3625C49.1533 56.5633 43.1308 59.1667 36.5 59.1667C35.3441 59.1667 34.2491 59.0483 33.1541 58.9004ZM55.6625 50.0254L43.4958 29.5833H60.0121C60.5291 31.4767 60.8333 33.4587 60.8333 35.5C60.8333 40.9729 58.8866 46.0021 55.6625 50.0254Z" fill="white"/>
</svg>
