<svg width="40" height="50" viewBox="0 0 40 50" fill="none" xmlns="http://www.w3.org/2000/svg">
<path d="M29.4041 30.508C28.5323 32.3077 26.6721 33.4766 24.2787 33.8548C21.8873 34.2327 19.0124 33.808 16.2348 32.4626C13.4572 31.1172 11.3417 29.1247 10.1558 27.014C8.96879 24.9015 8.73272 22.7173 9.60448 20.9175C10.4762 19.1178 12.3364 17.9489 14.7299 17.5707C17.1212 17.1928 19.9961 17.6175 22.7737 18.9629C25.5514 20.3083 27.6668 22.3008 28.8528 24.4115C30.0398 26.524 30.2758 28.7082 29.4041 30.508Z" fill="#001F4E" stroke="#001F4E"/>
<ellipse cx="16.3543" cy="24.187" rx="7" ry="6" transform="rotate(25.8444 16.3543 24.187)" fill="#FA692A"/>
<mask id="path-3-inside-1" fill="white">
<path fill-rule="evenodd" clip-rule="evenodd" d="M28.8135 19.1106L18.9137 14.3153L14.6634 23.0902L14.461 23.508L14.5111 23.5323C14.1676 25.1159 15.7028 27.2048 18.1965 28.4127C20.6902 29.6206 23.2809 29.5302 24.3106 28.2789L24.3608 28.3032L24.5632 27.8854L28.8135 19.1106Z"/>
</mask>
<path fill-rule="evenodd" clip-rule="evenodd" d="M28.8135 19.1106L18.9137 14.3153L14.6634 23.0902L14.461 23.508L14.5111 23.5323C14.1676 25.1159 15.7028 27.2048 18.1965 28.4127C20.6902 29.6206 23.2809 29.5302 24.3106 28.2789L24.3608 28.3032L24.5632 27.8854L28.8135 19.1106Z" fill="#001F4E"/>
<path d="M18.9137 14.3153L19.3496 13.4154L18.4496 12.9794L18.0137 13.8794L18.9137 14.3153ZM28.8135 19.1106L29.7134 19.5465L30.1494 18.6465L29.2494 18.2106L28.8135 19.1106ZM14.6634 23.0902L13.7634 22.6542L14.6634 23.0902ZM14.461 23.508L13.561 23.0721L13.1251 23.9721L14.025 24.408L14.461 23.508ZM14.5111 23.5323L15.4884 23.7442L15.6551 22.9753L14.947 22.6323L14.5111 23.5323ZM24.3106 28.2789L24.7466 27.379L24.0384 27.036L23.5385 27.6435L24.3106 28.2789ZM24.3608 28.3032L23.9248 29.2032L24.8248 29.6391L25.2607 28.7391L24.3608 28.3032ZM24.5632 27.8854L23.6632 27.4494L24.5632 27.8854ZM18.4777 15.2153L28.3775 20.0105L29.2494 18.2106L19.3496 13.4154L18.4777 15.2153ZM15.5633 23.5261L19.8136 14.7513L18.0137 13.8794L13.7634 22.6542L15.5633 23.5261ZM15.3609 23.9439L15.5633 23.5261L13.7634 22.6542L13.561 23.0721L15.3609 23.9439ZM14.947 22.6323L14.8969 22.608L14.025 24.408L14.0752 24.4323L14.947 22.6323ZM18.6324 27.5127C17.509 26.9686 16.6344 26.2403 16.0902 25.5139C15.5311 24.7675 15.4017 24.1438 15.4884 23.7442L13.5338 23.3203C13.277 24.5044 13.7435 25.717 14.4895 26.7129C15.2505 27.7288 16.3903 28.649 17.7606 29.3127L18.6324 27.5127ZM23.5385 27.6435C23.2787 27.9592 22.709 28.2443 21.7768 28.2683C20.8695 28.2917 19.7558 28.0569 18.6324 27.5127L17.7606 29.3127C19.1308 29.9764 20.5594 30.3003 21.8283 30.2677C23.0723 30.2356 24.3129 29.8499 25.0828 28.9144L23.5385 27.6435ZM24.7967 27.4032L24.7466 27.379L23.8747 29.1789L23.9248 29.2032L24.7967 27.4032ZM23.6632 27.4494L23.4608 27.8673L25.2607 28.7391L25.4631 28.3213L23.6632 27.4494ZM27.9135 18.6746L23.6632 27.4494L25.4631 28.3213L29.7134 19.5465L27.9135 18.6746Z" fill="#001F4E" mask="url(#path-3-inside-1)"/>
<rect x="19.3777" y="15.6512" width="2" height="7" transform="rotate(25.8444 19.3777 15.6512)" fill="#FA692A"/>
<path d="M34.361 15.6864C32.7209 19.0724 27.788 20.2806 23.2097 18.0629C18.6313 15.8453 16.5212 11.2257 18.1613 7.83968C19.8014 4.45369 24.7343 3.24552 29.3127 5.46317C33.891 7.68081 36.0011 12.3004 34.361 15.6864Z" fill="#001F4E" stroke="#001F4E"/>
<ellipse cx="23.5472" cy="9.33731" rx="4" ry="3.5" transform="rotate(25.8444 23.5472 9.33731)" fill="#FA692A"/>
<rect x="14.6669" y="32.2587" width="2" height="13" transform="rotate(25.8444 14.6669 32.2587)" fill="white"/>
</svg>
